<svg id="svg" version="1.1" viewBox="0 0 300 300" width="300" height="300" xmlns="http://www.w3.org/2000/svg"><svg xmlns="http://www.w3.org/2000/svg"><defs><clipPath id="clip-1"><rect x="0" y="0" transform="scale(0.14648,0.14648)" width="2048" height="2048" fill="none"/></clipPath><linearGradient x1="287.06543" y1="110.46035" x2="64.24043" y2="139.5" gradientUnits="userSpaceOnUse" id="color-1"><stop offset="0" stop-color="#001343"/><stop offset="1" stop-color="#103e82"/></linearGradient><linearGradient x1="220.69336" y1="83.44028" x2="83.71816" y2="147.50244" gradientUnits="userSpaceOnUse" id="color-2"><stop offset="0" stop-color="#316dab"/><stop offset="1" stop-color="#67a9de"/></linearGradient><linearGradient x1="226.50879" y1="41.01533" x2="235.0708" y2="91.78301" gradientUnits="userSpaceOnUse" id="color-3"><stop offset="0" stop-color="#285589"/><stop offset="1" stop-color="#3f80ba"/></linearGradient><linearGradient x1="213.33398" y1="178.07813" x2="23.78174" y2="179.45947" gradientUnits="userSpaceOnUse" id="color-4"><stop offset="0" stop-color="#011e58"/><stop offset="1" stop-color="#1a57a2"/></linearGradient><linearGradient x1="254.84473" y1="138.7771" x2="114.50039" y2="270.27246" gradientUnits="userSpaceOnUse" id="color-5"><stop offset="0" stop-color="#0a3980"/><stop offset="1" stop-color="#2c6db8"/></linearGradient></defs><g clip-path="url(#clip-1)" fill="none" fill-rule="nonzero" stroke="none" stroke-width="1" stroke-linecap="butt" stroke-linejoin="miter" stroke-miterlimit="10" stroke-dasharray="" stroke-dashoffset="0" font-family="none" font-weight="none" font-size="none" text-anchor="none" style="mix-blend-mode: normal"><path d="M188.63818,98.73677c0.35449,-0.48281 3.75879,-3.20889 4.39453,-3.75059l13.26416,-11.354l39.2168,-33.66519c5.07715,-4.32803 10.14551,-8.70044 15.22559,-13.02554c1.13232,-0.84243 2.32178,-1.9374 3.66797,-2.35693c3.89941,-1.21377 6.97998,-0.52031 10.23633,1.99409c2.6792,2.43662 3.82617,4.48535 4.12354,8.21338c0.1333,1.67622 -0.46875,5.22671 -1.39014,6.51519c-2.31299,3.23628 -5.44775,6.54126 -8.12109,9.55283l-15.05859,16.91851c-13.62012,15.20317 -27.10693,30.94673 -40.80615,45.98789c-0.1875,0.20259 -0.37646,0.40298 -0.56836,0.60103l-0.2373,0.30381c-5.05811,6.05156 -11.05518,12.56792 -16.29639,18.5751l-35.47705,41.06763l-11.88428,13.92773c-0.9917,1.16455 -4.55757,5.19873 -5.26465,6.27832c-2.77881,0.19922 -21.46421,-1.13818 -23.21704,-1.979c0.2751,-0.28125 0.09155,-0.31201 -0.35259,-0.89648c-2.2043,-2.90332 -4.29507,-5.87842 -6.43594,-8.82861l-34.80469,-47.98315l-10.47876,-14.45947c-2.12271,-2.93027 -4.54351,-6.05625 -6.30073,-9.18633c-0.70488,-1.25566 -0.97119,-3.98218 -0.77417,-5.44893c0.42466,-3.1626 1.71328,-4.91631 4.12427,-6.84683c2.36353,-1.48901 4.31631,-2.12534 7.11665,-1.9626c3.12686,0.18149 5.36616,1.79341 7.90298,3.44355c1.65674,1.07769 3.28872,2.16563 4.93169,3.24756l15.56733,10.24497l22.22271,14.74907c3.13184,2.08901 7.69775,4.88276 10.5356,7.06143c4.01982,-3.48164 8.0625,-6.93691 12.12773,-10.36538l26.45947,-22.61689c3.60059,-3.02139 7.17773,-6.0709 10.73145,-9.1481c1.42822,-1.23442 4.26123,-3.84653 5.61914,-4.80806z" fill="url(#color-1)"/><path d="M188.63818,98.73677c-0.17871,0.30103 -0.31934,0.54111 -0.48047,0.85474l0.10986,0.22881c0.3501,-0.08115 0.81445,-0.40679 1.14697,-0.60791c0.29883,-0.60425 7.71533,-6.31597 8.32617,-6.23804l-0.65186,0.81826l0.13184,0.29077c1.24365,0.77856 2.72607,-0.4478 4.23633,-0.76216c-0.13184,0.5521 -0.31787,1.0396 -0.0542,1.47671c2.49609,-0.23833 8.83447,-3.0627 11.42432,-3.93955c1.02393,-0.42026 2.29248,-1.42002 3.29297,-1.76162c1.42822,-0.48721 3.20068,-0.76992 4.62451,-1.21816c0.9375,-0.29546 0.96533,-0.78164 1.62451,-0.85884l0.24463,0.23701c-4.0752,4.11196 -8.58691,8.29556 -12.76025,12.35771l-34.19824,33.21563l-23.86816,23.38081c-4.56152,4.47363 -9.04951,9.17285 -13.8873,13.32861c-3.57788,3.07471 -7.22036,-0.34424 -9.84653,-2.67187c-0.56851,-0.91992 -7.22695,-6.71484 -8.34492,-7.73877l-37.84409,-34.73525l-10.24966,-9.5269c-1.02935,-0.9583 -4.00679,-3.84814 -4.99453,-4.45752c-0.49878,-0.53672 -0.86089,-0.86206 -1.19663,-1.51802c2.36353,-1.48901 4.31631,-2.12534 7.11665,-1.9626c3.12686,0.18149 5.36616,1.79341 7.90298,3.44355c1.65674,1.07769 3.28872,2.16563 4.93169,3.24756l15.56733,10.24497l22.22271,14.74907c3.13184,2.08901 7.69775,4.88276 10.5356,7.06143c4.01982,-3.48164 8.0625,-6.93691 12.12773,-10.36538l26.45947,-22.61689c3.60059,-3.02139 7.17773,-6.0709 10.73145,-9.1481c1.42822,-1.23442 4.26123,-3.84653 5.61914,-4.80806z" fill="url(#color-2)"/><path d="M188.63818,98.73677c0.35449,-0.48281 3.75879,-3.20889 4.39453,-3.75059l13.26416,-11.354l39.2168,-33.66519c5.07715,-4.32803 10.14551,-8.70044 15.22559,-13.02554c1.13232,-0.84243 2.32178,-1.9374 3.66797,-2.35693c3.89941,-1.21377 6.97998,-0.52031 10.23633,1.99409c-0.78809,1.65322 -11.73486,11.82363 -13.91455,13.93535l-38.11523,36.74282l-0.24463,-0.23701c-0.65918,0.0772 -0.68701,0.56338 -1.62451,0.85884c-1.42383,0.44824 -3.19629,0.73096 -4.62451,1.21816c-1.00049,0.3416 -2.26904,1.34136 -3.29297,1.76162c-2.58984,0.87686 -8.92822,3.70122 -11.42432,3.93955c-0.26367,-0.43711 -0.07764,-0.92461 0.0542,-1.47671c-1.51025,0.31436 -2.99268,1.54072 -4.23633,0.76216l-0.13184,-0.29077l0.65186,-0.81826c-0.61084,-0.07793 -8.02734,5.63379 -8.32617,6.23804c-0.33252,0.20112 -0.79687,0.52676 -1.14697,0.60791l-0.10986,-0.22881c0.16113,-0.31362 0.30176,-0.55371 0.48047,-0.85474z" fill="url(#color-3)"/><path d="M66.62007,110.40923c0.98774,0.60938 3.96519,3.49922 4.99453,4.45752l10.24966,9.5269l37.84409,34.73525c1.11797,1.02393 7.77642,6.81885 8.34492,7.73877l-0.16816,0.02051c-0.99507,-0.6709 -3.85913,-3.39844 -4.90781,-4.36377l-9.65889,-8.89893c-4.20864,-3.79541 -8.39443,-7.61616 -12.55723,-11.46196c-1.39263,-1.27515 -3.83218,-3.14048 -4.95806,-4.46514l-0.18721,0.09331c0.12319,0.60747 3.63618,4.68428 4.34839,5.7668c1.34312,2.04155 2.2188,4.27793 3.27642,6.46641c0.69302,1.43555 1.54497,2.88135 2.34185,4.26709c0.67646,1.17627 1.87295,2.07568 2.48789,3.2666c1.58862,3.07764 -0.76934,3.31201 -1.77085,5.34814c-0.4103,0.8335 -0.09434,1.64648 -0.40928,2.45508c-0.03018,0.07617 -0.06416,0.15234 -0.09609,0.22998c0.6665,1.37109 6.54155,8.54297 6.4563,9.10693c-0.40532,-0.38672 -2.28794,-3.02051 -2.71523,-3.60352l-6.7084,-9.2666l-25.24746,-34.74668c-2.85439,-4.00063 -5.7208,-7.99614 -8.34521,-12.15205c-0.74824,-1.18506 -2.21279,-3.2915 -2.61416,-4.52065z" fill="#1f5da0"/><path d="M205.95557,212.76563c-5.57812,2.25439 -15.14502,4.75195 -21.16113,6.12451c-38.86157,8.73633 -80.47881,8.41846 -118.2397,-5.16797c-20.9644,-7.54248 -50.66221,-26.57666 -41.23813,-53.17969c4.15063,-11.71582 17.82334,-23.00493 29.04375,-28.07212c-11.49463,11.15112 -12.27158,24.80845 -2.35459,37.41636c12.41836,15.78662 32.95239,23.84912 51.72964,29.11963c5.04536,1.4165 11.52583,2.86816 16.71064,3.53467c1.75283,0.84082 20.43823,2.17822 23.21704,1.979c3.13037,-0.15088 6.15527,-0.12891 9.33984,-0.32227c9.08057,-0.5332 18.1084,-1.73145 27.01318,-3.58594c3.11865,-0.64307 6.37061,-1.47949 9.45996,-2.25879c1.8999,-0.479 3.82324,-1.13965 5.73779,-1.58936c2.0127,-0.75439 4.20557,-1.45898 6.25195,-2.15479c0.13916,-0.06885 0.75879,-0.27393 0.94336,-0.33984c2.52539,0.28857 9.80566,-3.79541 11.03613,-3.50391c0.04541,0.49951 -0.58154,1.18213 -0.78955,1.86035c-1.48828,1.39746 -4.08105,1.85156 -5.79492,2.85498c-2.42285,1.41943 -4.90283,3.1582 -7.19824,4.75635c0.08936,1.1792 -1.53955,2.70996 -0.60498,3.8335c0.77051,0.92725 1.97168,1.05176 1.69189,2.09473c-0.4541,1.69189 3.03223,4.98926 3.04541,5.12988l-0.11426,0.2417c0.93164,0.68555 2.06543,-0.06592 2.79492,0.31787c-0.24023,0.59326 -0.75439,0.00732 -0.52002,0.91113z" fill="url(#color-4)"/><path d="M195.21387,196.76367c2.0127,-0.75439 4.20557,-1.45898 6.25195,-2.15479c-0.14355,0.15527 -0.64893,0.68262 -0.8042,0.74121c-1.25391,0.48047 -4.14844,1.52344 -5.44775,1.41357z" fill="#001a51"/><path d="M224.67773,118.42427c19.01514,8.21499 37.51318,22.74287 45.21533,42.48735c4.52637,11.60449 5.69678,23.0625 0.70459,34.80029c-6.87451,16.16602 -26.896,28.03125 -42.57715,34.05762c-38.53564,14.80957 -90.27158,17.05518 -130.15166,7.16016c-4.57529,-1.10449 -9.09814,-2.41553 -13.55435,-3.93018c-1.29961,-0.43213 -4.63696,-1.44434 -5.75332,-2.1123c-0.54434,-0.52734 -1.02642,-0.63281 -1.70947,-1.00049c1.01294,0.07178 2.82422,0.70166 3.58433,0.5625c0.97793,0.12891 6.56821,1.71533 7.89829,2.04199c5.12285,1.22754 10.28643,2.27637 15.48164,3.14795c28.75796,4.67139 54.46333,3.2124 82.75239,-2.83154c39.06885,-8.34814 94.05762,-34.61426 67.46631,-83.37744c-7.30371,-13.39424 -17.01416,-21.9605 -29.74805,-30.00234c0.2666,-0.44927 0.32227,-0.47505 0.39111,-1.00356z" fill="url(#color-5)"/><path d="M216.43506,125.36279c1.64355,0.62754 3.87158,1.43027 5.44189,2.16401c11.45215,5.35107 23.0376,14.32119 28.5,25.96392c3.53613,7.53809 4.00928,16.42822 0.99609,24.19922c-5.96777,15.39551 -22.17041,25.31982 -36.62988,31.64355c-2.13574,0.93457 -6.58154,2.79346 -8.7876,3.43213c-0.23437,-0.90381 0.27979,-0.31787 0.52002,-0.91113c-0.72949,-0.38379 -1.86328,0.36768 -2.79492,-0.31787l0.11426,-0.2417c-0.01318,-0.14062 -3.49951,-3.43799 -3.04541,-5.12988c0.27979,-1.04297 -0.92139,-1.16748 -1.69189,-2.09473c-0.93457,-1.12354 0.69434,-2.6543 0.60498,-3.8335c2.29541,-1.59814 4.77539,-3.33691 7.19824,-4.75635c1.71387,-1.00342 4.30664,-1.45752 5.79492,-2.85498c0.20801,-0.67822 0.83496,-1.36084 0.78955,-1.86035c-1.23047,-0.2915 -8.51074,3.79248 -11.03613,3.50391c11.7583,-4.62012 24.32959,-11.15771 31.59668,-21.90674c3.87012,-5.72754 5.69238,-12.52295 4.25684,-19.3667c-2.10498,-10.04766 -9.44092,-17.99502 -17.63818,-23.70718c-1.59229,-1.10947 -3.14209,-1.85303 -4.73437,-2.89849c0.48926,-0.37134 -0.12012,-0.11455 0.54492,-1.02715z" fill="#001a51"/><path d="M78.56118,230.88721c-1.36846,-0.40869 -6.848,-2.76709 -7.94956,-3.47314c1.02993,0.24902 2.30698,0.78662 3.3646,1.10889c2.15098,0.65186 4.30503,1.28613 6.45981,1.92627c-0.76011,0.13916 -2.57139,-0.49072 -3.58433,-0.5625c0.68306,0.36768 1.16514,0.47314 1.70947,1.00049z" fill="#001a51"/><path d="M219.40137,116.67905c1.95703,0.46025 3.43945,0.99844 5.27637,1.74521c-0.06885,0.52852 -0.12451,0.5543 -0.39111,1.00356c-1.5293,-0.83804 -3.51123,-1.77451 -4.88525,-2.74878z" fill="#000000"/><path d="M212.58545,124.67124l0.2373,-0.30381c1.25098,0.1856 2.41113,0.60498 3.6123,0.99536c-0.66504,0.9126 -0.05566,0.65581 -0.54492,1.02715c-1.10449,-0.53701 -2.26758,-1.06831 -3.30469,-1.7187z" fill="#000000"/></g></svg></svg>